<svg width="48" height="13" fill="none" xmlns="http://www.w3.org/2000/svg"><path d="M.992.727h4.383c1.125 0 2.04.349 2.742 1.046.703.693 1.055 1.602 1.055 2.727 0 1.12-.362 2.029-1.086 2.727-.719.697-1.651 1.046-2.797 1.046H3.008V12H.992V.727zm2.016 1.648v4.273h1.828c.724 0 1.286-.187 1.687-.562.401-.375.602-.904.602-1.586 0-.677-.2-1.2-.602-1.57-.395-.37-.955-.555-1.68-.555H3.009zM10.5 12V3.719h1.945V12H10.5zm1.734-9.672a1.055 1.055 0 01-.765.305 1.055 1.055 0 01-1.078-1.055c0-.297.104-.547.312-.75.209-.208.464-.312.766-.312s.557.104.765.312c.214.203.32.453.32.75 0 .292-.106.542-.32.75zm3.868 4.844l3.117-3.453h2.242L18.148 7.28 21.602 12h-2.25l-2.618-3.54-.656.665V12h-1.945V.727h1.945v6.445h.024zm9.265 3.492c.557 0 1.026-.164 1.406-.492.386-.333.579-.748.579-1.242v-.633l-1.915.117c-.468.031-.833.149-1.093.352a.949.949 0 00-.383.789c0 .338.128.61.383.812.26.198.601.297 1.023.297zm-.586 1.469c-.807 0-1.471-.232-1.992-.695-.516-.464-.773-1.066-.773-1.805 0-.735.27-1.315.812-1.742.547-.427 1.326-.672 2.336-.735l2.188-.125v-.593c0-.433-.139-.769-.415-1.008-.27-.24-.648-.36-1.132-.36-.453 0-.823.102-1.11.305-.286.203-.46.48-.523.828h-1.805c.042-.786.378-1.424 1.008-1.914.635-.495 1.471-.742 2.508-.742 1.026 0 1.846.25 2.46.75.62.5.93 1.167.93 2V12h-1.875v-1.32h-.039a2.609 2.609 0 01-1.062 1.062 3.1 3.1 0 01-1.516.39zm9.157 0c-1.047 0-1.883-.386-2.508-1.156-.62-.771-.93-1.813-.93-3.125 0-1.308.31-2.347.93-3.118.625-.77 1.46-1.156 2.508-1.156.583 0 1.098.138 1.546.414.453.276.792.649 1.016 1.117h.047V.727h1.945V12h-1.906v-1.414h-.031c-.23.474-.576.851-1.04 1.133-.458.276-.984.414-1.578.414zm.585-6.953c-.625 0-1.12.242-1.484.726-.364.48-.547 1.13-.547 1.953 0 .829.18 1.482.54 1.961.364.48.861.72 1.491.72.615 0 1.107-.243 1.477-.727.37-.485.555-1.136.555-1.954 0-.812-.185-1.46-.555-1.945a1.759 1.759 0 00-1.477-.734zM47.47 3.719V12h-1.875v-1.438h-.04c-.458 1.058-1.301 1.586-2.53 1.586-.902 0-1.618-.273-2.149-.82-.526-.552-.79-1.305-.79-2.258V3.72h1.946v4.96c0 .594.14 1.048.422 1.36.287.313.703.469 1.25.469.557 0 1-.182 1.328-.547.328-.365.492-.849.492-1.453v-4.79h1.946z" fill="#fff"/></svg>